<svg width="16" height="22" viewBox="0 0 16 22" fill="none" xmlns="http://www.w3.org/2000/svg">
<path d="M11.6914 0.980445C11.3625 0.915992 11 1.16196 11 1.55271V15V16V20C10.9981 20.1325 11.0226 20.2641 11.072 20.387C11.1214 20.51 11.1948 20.6219 11.2878 20.7163C11.3809 20.8106 11.4918 20.8856 11.614 20.9367C11.7363 20.9879 11.8675 21.0142 12 21.0142C12.1325 21.0142 12.2637 20.9879 12.386 20.9367C12.5082 20.8856 12.6191 20.8106 12.7122 20.7163C12.8052 20.6219 12.8786 20.51 12.928 20.387C12.9774 20.2641 13.0019 20.1325 13 20V15.8437C14.7201 15.3546 16 13.6848 16 12C16 10.23 14.4331 3.85927 11.9941 1.15427C11.9069 1.05777 11.801 1.00193 11.6914 0.980445ZM4 0.999976C1.558 0.999976 0 4.93998 0 6.99998C0 8.85841 1.27983 10.4101 3 10.8574V20C2.99813 20.1325 3.02261 20.2641 3.07202 20.387C3.12143 20.51 3.1948 20.6219 3.28784 20.7163C3.38088 20.8106 3.49176 20.8856 3.61401 20.9367C3.73627 20.9879 3.86747 21.0142 4 21.0142C4.13252 21.0142 4.26373 20.9879 4.38599 20.9367C4.50824 20.8856 4.61912 20.8106 4.71216 20.7163C4.8052 20.6219 4.87857 20.51 4.92798 20.387C4.97739 20.2641 5.00187 20.1325 5 20V10.8574C6.72017 10.4101 8 8.85841 8 6.99998C8 4.93998 6.442 0.999976 4 0.999976Z" fill="#F5F5F5"/>
</svg>
