<svg width="23" height="18" viewBox="0 0 23 18" fill="none" xmlns="http://www.w3.org/2000/svg">
<path d="M6.26959 0C5.90959 0 5.57068 0.199531 5.39068 0.519531L2.75982 5.34961L2.68756 5.29688C2.29756 4.90287 1.66159 4.90097 1.26959 5.29297C0.87859 5.68497 0.880496 6.31994 1.2735 6.71094L2.00006 7.41016V17C2.00006 17.55 2.45006 18 3.00006 18H3.9942C4.5482 18 4.9972 17.5481 4.9942 16.9941L4.99029 16H19.0098L19.0059 16.9941C19.0029 17.5481 19.4519 18 20.0059 18H21.0001C21.5501 18 22.0001 17.55 22.0001 17V7.41016L22.7051 6.71289C23.0981 6.32289 23.0991 5.68787 22.7071 5.29688L22.7032 5.29297C22.3122 4.90197 21.6791 4.90197 21.2891 5.29297L21.2696 5.31055L18.8907 0.550781C18.7217 0.213781 18.3771 0 18.0001 0H6.26959ZM6.8692 2H17.3809L19.7794 6.80078L19.5899 7H4.41021L4.24029 6.82031L6.8692 2ZM8.50006 3C8.10223 3 7.7207 3.15804 7.4394 3.43934C7.15809 3.72064 7.00006 4.10218 7.00006 4.5C7.00006 4.89782 7.15809 5.27936 7.4394 5.56066C7.7207 5.84196 8.10223 6 8.50006 6C8.89788 6 9.27942 5.84196 9.56072 5.56066C9.84202 5.27936 10.0001 4.89782 10.0001 4.5C10.0001 4.10218 9.84202 3.72064 9.56072 3.43934C9.27942 3.15804 8.89788 3 8.50006 3ZM12.0001 3C11.7348 3 11.4805 3.10536 11.293 3.29289C11.1054 3.48043 11.0001 3.73478 11.0001 4C11.0001 4.26522 11.1054 4.51957 11.293 4.70711C11.4805 4.89464 11.7348 5 12.0001 5C12.2653 5 12.5196 4.89464 12.7072 4.70711C12.8947 4.51957 13.0001 4.26522 13.0001 4C13.0001 3.73478 12.8947 3.48043 12.7072 3.29289C12.5196 3.10536 12.2653 3 12.0001 3ZM15.5001 3C15.1022 3 14.7207 3.15804 14.4394 3.43934C14.1581 3.72064 14.0001 4.10218 14.0001 4.5C14.0001 4.89782 14.1581 5.27936 14.4394 5.56066C14.7207 5.84196 15.1022 6 15.5001 6C15.8979 6 16.2794 5.84196 16.5607 5.56066C16.842 5.27936 17.0001 4.89782 17.0001 4.5C17.0001 4.10218 16.842 3.72064 16.5607 3.43934C16.2794 3.15804 15.8979 3 15.5001 3ZM7.00006 10C7.55006 10 8.00006 10.45 8.00006 11C8.00006 11.55 7.55006 12 7.00006 12C6.45006 12 6.00006 11.55 6.00006 11C6.00006 10.45 6.45006 10 7.00006 10ZM17.0001 10C17.5501 10 18.0001 10.45 18.0001 11C18.0001 11.55 17.5501 12 17.0001 12C16.4501 12 16.0001 11.55 16.0001 11C16.0001 10.45 16.4501 10 17.0001 10Z" fill="#F5F5F5"/>
</svg>
