<svg width="32" height="32" viewBox="0 0 32 32" fill="none" xmlns="http://www.w3.org/2000/svg">
<path d="M15.9261 0C7.13423 0 0 7.16261 0 15.9895C0 24.8163 7.13423 31.9789 15.9261 31.9789C24.718 31.9789 31.8523 24.8163 31.8523 15.9895C31.8523 7.16261 24.739 0 15.9261 0ZM15.9261 4.4029C18.7798 4.4029 21.1089 6.72021 21.1089 9.60632C21.1089 12.4924 18.8008 14.8097 15.9261 14.8097C13.0515 14.8097 10.7433 12.4924 10.7433 9.60632C10.7433 6.72021 13.0724 4.4029 15.9261 4.4029ZM15.9261 28.7979C12.0443 28.7979 8.56108 27.0494 6.23196 24.2897C5.62346 23.5734 5.77034 22.499 6.50474 21.9302C8.91779 20.0974 13.3242 19.1916 15.9261 19.1916C18.528 19.1916 22.9345 20.1185 25.3475 21.9302C26.1029 22.499 26.2288 23.5734 25.6203 24.2897C23.2912 27.0494 19.829 28.7979 15.9261 28.7979Z" fill="#0C1529"/>
</svg>
