<svg width="26" height="26" viewBox="0 0 26 26" fill="none" xmlns="http://www.w3.org/2000/svg">
<path d="M10.5 0.5C4.99196 0.5 0.5 4.99196 0.5 10.5C0.5 16.008 4.99196 20.5 10.5 20.5C13.0299 20.5 15.3396 19.5463 17.104 17.9878L18 18.8838V20.5L22.4824 24.9824C23.1724 25.6724 24.2924 25.6724 24.9824 24.9824C25.6724 24.2924 25.6724 23.1724 24.9824 22.4824L20.5 18H18.8838L17.9878 17.104C19.5463 15.3396 20.5 13.0299 20.5 10.5C20.5 4.99196 16.008 0.5 10.5 0.5ZM10.5 3C14.6569 3 18 6.34306 18 10.5C18 14.6569 14.6569 18 10.5 18C6.34306 18 3 14.6569 3 10.5C3 6.34306 6.34306 3 10.5 3ZM6.75 9.25C6.41848 9.25 6.10054 9.3817 5.86612 9.61612C5.6317 9.85054 5.5 10.1685 5.5 10.5C5.5 10.8315 5.6317 11.1495 5.86612 11.3839C6.10054 11.6183 6.41848 11.75 6.75 11.75C7.08152 11.75 7.39946 11.6183 7.63388 11.3839C7.8683 11.1495 8 10.8315 8 10.5C8 10.1685 7.8683 9.85054 7.63388 9.61612C7.39946 9.3817 7.08152 9.25 6.75 9.25ZM10.5 9.25C10.1685 9.25 9.85054 9.3817 9.61612 9.61612C9.3817 9.85054 9.25 10.1685 9.25 10.5C9.25 10.8315 9.3817 11.1495 9.61612 11.3839C9.85054 11.6183 10.1685 11.75 10.5 11.75C10.8315 11.75 11.1495 11.6183 11.3839 11.3839C11.6183 11.1495 11.75 10.8315 11.75 10.5C11.75 10.1685 11.6183 9.85054 11.3839 9.61612C11.1495 9.3817 10.8315 9.25 10.5 9.25ZM14.25 9.25C13.9185 9.25 13.6005 9.3817 13.3661 9.61612C13.1317 9.85054 13 10.1685 13 10.5C13 10.8315 13.1317 11.1495 13.3661 11.3839C13.6005 11.6183 13.9185 11.75 14.25 11.75C14.5815 11.75 14.8995 11.6183 15.1339 11.3839C15.3683 11.1495 15.5 10.8315 15.5 10.5C15.5 10.1685 15.3683 9.85054 15.1339 9.61612C14.8995 9.3817 14.5815 9.25 14.25 9.25Z" fill="#000E29"/>
</svg>
