<svg width="20" height="16" viewBox="0 0 20 16" fill="none" xmlns="http://www.w3.org/2000/svg">
<path d="M1 0C0.448 0 0 0.448 0 1V15C0 15.552 0.448 16 1 16C1.552 16 2 15.552 2 15V14H18V15C18 15.552 18.448 16 19 16C19.552 16 20 15.552 20 15V7C20 5.895 19.105 5 18 5H10C8.895 5 8 5.895 8 7V8H5H2V1C2 0.448 1.552 0 1 0ZM5 8C5.53043 8 6.03914 7.78929 6.41421 7.41421C6.78929 7.03914 7 6.53043 7 6C7 5.46957 6.78929 4.96086 6.41421 4.58579C6.03914 4.21071 5.53043 4 5 4C4.46957 4 3.96086 4.21071 3.58579 4.58579C3.21071 4.96086 3 5.46957 3 6C3 6.53043 3.21071 7.03914 3.58579 7.41421C3.96086 7.78929 4.46957 8 5 8Z" fill="#F5F5F5"/>
</svg>
